<?xml version="1.0" encoding="UTF-8"?>
<svg version="1.1" xmlns="http://www.w3.org/2000/svg" width="580" height="114">
<path d="M0 0 C6.6 0 13.2 0 20 0 C22.97 11.22 25.94 22.44 29 34 C31.54756152 24.30839575 31.54756152 24.30839575 34.08544922 14.61425781 C34.56522217 12.80199707 34.56522217 12.80199707 35.0546875 10.953125 C35.54171143 9.09929199 35.54171143 9.09929199 36.03857422 7.20800781 C36.82442397 4.58584789 37.66708008 2.37539814 39 0 C41.97922593 -0.02683987 44.95821295 -0.04676037 47.9375 -0.0625 C49.21270508 -0.07506836 49.21270508 -0.07506836 50.51367188 -0.08789062 C51.32255859 -0.09111328 52.13144531 -0.09433594 52.96484375 -0.09765625 C53.7137085 -0.10289307 54.46257324 -0.10812988 55.23413086 -0.11352539 C57 0 57 0 58 1 C58.23916646 2.441213 58.41857029 3.89242507 58.57250977 5.34521484 C58.67253799 6.2706308 58.77256622 7.19604675 58.87562561 8.14950562 C58.97983322 9.15977814 59.08404083 10.17005066 59.19140625 11.2109375 C59.30097153 12.2488443 59.4105368 13.2867511 59.52342224 14.35610962 C59.75506971 16.563508 59.9844143 18.77114905 60.21166992 20.97900391 C60.55750759 24.32667404 60.9139797 27.67308957 61.27148438 31.01953125 C61.49544432 33.16659869 61.71877081 35.31373231 61.94140625 37.4609375 C62.10075401 38.94598282 62.10075401 38.94598282 62.26332092 40.46102905 C62.92600969 47.00703967 63.09109727 53.42015503 63 60 C58.05 60 53.1 60 48 60 C47.80083984 56.92945312 47.80083984 56.92945312 47.59765625 53.796875 C47.46551242 51.80776254 47.33334259 49.81865171 47.20043945 47.82958984 C47.10896056 46.45044432 47.01877737 45.07121219 46.92993164 43.69189453 C46.80177535 41.70583002 46.66852559 39.72009626 46.53515625 37.734375 C46.456604 36.54038086 46.37805176 35.34638672 46.29711914 34.11621094 C46.05862646 31.61487934 45.70905297 29.39987159 45 27 C44.7326001 27.9286084 44.4652002 28.8572168 44.18969727 29.81396484 C43.19832843 33.25479863 42.2044111 36.69489185 41.2097168 40.13476562 C40.77933161 41.62447309 40.34964046 43.11438125 39.9206543 44.60449219 C39.30439112 46.74467088 38.68564639 48.88411854 38.06640625 51.0234375 C37.87470352 51.69120209 37.68300079 52.35896667 37.48548889 53.04696655 C36.11387171 57.77225659 36.11387171 57.77225659 35 60 C30.71 60 26.42 60 22 60 C19.08868107 52.83367648 17.20712434 45.49001837 15.3125 38 C14.219375 33.71 13.12625 29.42 12 25 C11.34 36.55 10.68 48.1 10 60 C4.72 60 -0.56 60 -6 60 C-5.32302241 46.92732924 -3.96056479 33.99851539 -2.4375 21 C-2.20079056 18.95316906 -1.96445997 16.90629427 -1.72851562 14.859375 C-1.15739322 9.90563964 -0.57854945 4.95289563 0 0 Z " fill="#797979" transform="translate(231,31)"/>
<path d="M0 0 C34.9947644 0 34.9947644 0 41.6953125 6.3671875 C45.98804259 11.73952636 45.55955694 17.38301712 45 24 C43.26601668 29.29828238 40.32233741 31.73423396 36 35 C37.3358702 38.70490111 38.99665943 41.63399598 41.3125 44.8125 C50 56.97136506 50 56.97136506 50 60 C43.67072474 61.26318165 37.15920577 62.45662514 31 60 C25.56328223 54.85431382 22.29770709 47.84212508 19.11889648 41.15478516 C18.06889831 38.86777432 18.06889831 38.86777432 16 37 C15.67 44.59 15.34 52.18 15 60 C10.05 60 5.1 60 0 60 C0 40.2 0 20.4 0 0 Z M15 12 C15 16.29 15 20.58 15 25 C21.72167478 25.22904469 21.72167478 25.22904469 28 23 C29.41577477 21.81575674 29.41577477 21.81575674 29.0625 18.4375 C29.041875 17.303125 29.02125 16.16875 29 15 C23.99067246 11.99440348 20.67276511 11.70658112 15 12 Z " fill="#797979" transform="translate(121,31)"/>
<path d="M0 0 C8.00087823 8.45807127 8.64204844 17.70017046 8.46875 28.8046875 C8.12779172 37.03882995 5.04942951 43.58689443 -0.8125 49.3125 C-9.0960607 55.11472382 -18.05364755 55.14575209 -27.8125 54.3125 C-36.02862273 52.7250507 -41.17913459 48.13476945 -45.8125 41.3125 C-50.53758308 33.07144601 -50.24743699 20.37161785 -47.8125 11.375 C-45.00906985 4.56853237 -39.9117528 -1.09677034 -33.25 -4.25 C-21.57637316 -8.15320035 -10.30017468 -6.18010481 0 0 Z M-27.8125 8.3125 C-32.98160061 15.32770797 -32.34053863 23.95817458 -31.8125 32.3125 C-31.0115414 36.21128376 -29.72583032 39.23003443 -27.125 42.3125 C-23.68291896 43.80096747 -20.45480485 43.97144581 -16.8125 43.3125 C-13.33201941 41.1939466 -11.13973573 39.18360422 -9.8125 35.3125 C-8.00713154 26.10512085 -7.7954601 16.76637981 -12.4375 8.375 C-17.22982817 4.21324132 -22.94893581 4.14373069 -27.8125 8.3125 Z " fill="#797979" transform="translate(99.8125,36.6875)"/>
<path d="M0 0 C4.29 0 8.58 0 13 0 C15.03161531 5.28684645 16.86003952 10.57440231 18.48046875 16 C18.80704216 17.08172485 18.80704216 17.08172485 19.14021301 18.18530273 C19.82515417 20.45612085 20.50639178 22.72802967 21.1875 25 C21.65535288 26.55345955 22.1234497 28.10684565 22.59179688 29.66015625 C23.73068193 33.43926232 24.86625031 37.21935028 26 41 C30.38136885 27.34802697 34.74608915 13.69227555 39 0 C43.62 0 48.24 0 53 0 C53.71799703 6.81295162 54.42987495 13.62650538 55.13623047 20.44067383 C55.37708526 22.7559511 55.61957541 25.07105888 55.86376953 27.38598633 C56.215628 30.72433332 56.56149016 34.0632571 56.90625 37.40234375 C57.0156189 38.42770737 57.12498779 39.45307098 57.2376709 40.50950623 C57.83675112 46.37642424 58.10679042 52.10249904 58 58 C55.03 58 52.06 58 49 58 C47.50325596 55.00651193 47.54416414 51.83473046 47.28125 48.54296875 C47.21844849 47.80299149 47.15564697 47.06301422 47.09094238 46.3006134 C46.89007981 43.92988266 46.69458167 41.55875394 46.5 39.1875 C46.30499691 36.82699963 46.10875987 34.46662927 45.90905762 32.10652161 C45.784872 30.6375925 45.66340771 29.16843006 45.54504395 27.69902039 C45.23941767 24.07046759 44.80478798 20.55289715 44 17 C43.61142822 18.20648193 43.22285645 19.41296387 42.82250977 20.65600586 C41.38498923 25.11663656 39.94347706 29.57596863 38.50073242 34.03491211 C37.87593738 35.96782605 37.25223682 37.90109411 36.62963867 39.8347168 C35.73641395 42.60819022 34.83930736 45.38038132 33.94140625 48.15234375 C33.6622084 49.02213364 33.38301056 49.89192352 33.09535217 50.78807068 C32.83515793 51.58882523 32.57496368 52.38957977 32.30688477 53.21459961 C32.07816177 53.9229747 31.84943878 54.63134979 31.61378479 55.3611908 C31 57 31 57 30 58 C27.32941149 58.14115161 24.67567762 58.04247107 22 58 C19.91720757 52.56709342 18.02744123 47.11786804 16.30078125 41.5625 C16.08756226 40.88251953 15.87434326 40.20253906 15.65466309 39.50195312 C14.8714941 37.00206767 14.09221403 34.50096521 13.3125 32 C11.559375 26.39 9.80625 20.78 8 15 C6.68 29.19 5.36 43.38 4 58 C1.03 58 -1.94 58 -5 58 C-6.34732272 55.30535457 -5.89153041 53.62495025 -5.56274414 50.63232422 C-5.4425441 49.51131317 -5.32234406 48.39030212 -5.19850159 47.23532104 C-5.06209763 46.02071198 -4.92569366 44.80610291 -4.78515625 43.5546875 C-4.58326942 41.69446457 -4.58326942 41.69446457 -4.37730408 39.79666138 C-4.01825585 36.49833807 -3.65402147 33.20067065 -3.28729248 29.90319824 C-2.91440456 26.53880361 -2.54830498 23.17367131 -2.18164062 19.80859375 C-1.46070175 13.20502548 -0.73229384 6.60231832 0 0 Z " fill="#939393" transform="translate(514,33)"/>
<path d="M0 0 C12.54 0 25.08 0 38 0 C37 10 37 10 36 13 C29.07 13 22.14 13 15 13 C15 16.3 15 19.6 15 23 C20.94 23 26.88 23 33 23 C33 26.96 33 30.92 33 35 C27.39 35 21.78 35 16 35 C16 38.96 16 42.92 16 47 C23.59 47 31.18 47 39 47 C39 51.29 39 55.58 39 60 C26.13 60 13.26 60 0 60 C0 40.2 0 20.4 0 0 Z " fill="#797979" transform="translate(179,31)"/>
<path d="M0 0 C5.28 0 10.56 0 16 0 C16 20.13 16 40.26 16 61 C24.91 61 33.82 61 43 61 C42.01 65.62 41.02 70.24 40 75 C26.8 75 13.6 75 0 75 C0 50.25 0 25.5 0 0 Z " fill="#797979" transform="translate(8,16)"/>
<path d="M0 0 C1.0509082 -0.00193359 1.0509082 -0.00193359 2.12304688 -0.00390625 C8.39486828 0.12233352 13.70101793 1.68226275 19.375 4.375 C19.375 8.64326873 18.99886487 9.31382432 16.375 12.375 C13.66391137 11.8965726 11.25504858 11.32757735 8.6875 10.3125 C3.14333256 8.74339601 -2.27168351 8.46248953 -7.6875 10.5625 C-9.78849513 12.27101564 -9.78849513 12.27101564 -10.625 14.875 C-10.88076921 17.37399511 -10.88076921 17.37399511 -9.41723633 18.92822266 C-7.30838109 20.63058966 -5.54345685 21.25156878 -2.94921875 22.0234375 C-2.03849609 22.30703125 -1.12777344 22.590625 -0.18945312 22.8828125 C1.71561822 23.45704989 3.62186041 24.02741835 5.52929688 24.59375 C11.97001622 26.60902794 16.78942828 28.59378818 20.7265625 34.3515625 C22.49515874 39.87043509 22.21714827 45.65951279 19.6875 50.8125 C13.27942487 57.91334 7.19429346 59.96662853 -2.1875 60.625 C-9.34938276 60.54188337 -17.35050192 58.87775378 -23.625 55.375 C-23.07776317 52.00037285 -22.5701 50.29265 -20.625 47.375 C-17.9189825 47.8525325 -15.46768742 48.43357145 -12.88671875 49.39453125 C-9.3029848 50.47179738 -6.29890953 50.6753028 -2.5625 50.6875 C-1.37527344 50.70425781 -0.18804687 50.72101563 1.03515625 50.73828125 C4.65232084 50.34483528 6.51868931 49.5942542 9.375 47.375 C10.71050847 44.52872409 10.71050847 44.52872409 10.375 41.375 C6.52585093 36.44778552 2.74961419 35.21124512 -3.0625 33.8125 C-9.9345393 32.11399596 -15.15102457 30.17449851 -20 24.6875 C-22.09921689 20.4083271 -22.45718592 17.05709654 -21.625 12.375 C-19.02565436 7.27258078 -15.57419834 3.8416854 -10.44140625 1.2890625 C-6.93852566 0.15220528 -3.64642097 -0.00693896 0 0 Z " fill="#939393" transform="translate(411.625,31.625)"/>
<path d="M0 0 C2.97 0 5.94 0 9 0 C9.01981934 1.21582764 9.03963867 2.43165527 9.06005859 3.68432617 C9.13624695 8.20390198 9.22494405 12.7231614 9.31738281 17.24243164 C9.35561789 19.19679509 9.39048027 21.15122759 9.421875 23.10571289 C9.46764435 25.91838222 9.52561923 28.73057839 9.5859375 31.54296875 C9.59748871 32.41398727 9.60903992 33.2850058 9.62094116 34.18241882 C9.72530522 38.49189256 9.83335631 42.15051273 12 46 C16.74701517 49.27770095 20.43371822 49.44176839 26 49 C29.73886992 48.03768988 29.73886992 48.03768988 32.11288452 45.19696045 C33.06633625 42.83571687 33.27408237 41.13533229 33.31884766 38.59863281 C33.33871735 37.7380426 33.35858704 36.87745239 33.37905884 35.99078369 C33.39638565 34.61089264 33.39638565 34.61089264 33.4140625 33.203125 C33.43342865 32.25435486 33.4527948 31.30558472 33.4727478 30.32806396 C33.53245659 27.30213367 33.57889433 24.27616516 33.625 21.25 C33.66318777 19.19659813 33.70223997 17.14321214 33.7421875 15.08984375 C33.83815108 10.06002504 33.92221446 5.03013135 34 0 C37.3 0 40.6 0 44 0 C44.04960464 5.99567472 44.08581647 11.99122875 44.10986328 17.98706055 C44.11989285 20.02484215 44.13351978 22.06260946 44.15087891 24.1003418 C44.17526127 27.0369826 44.18651377 29.97343235 44.1953125 32.91015625 C44.20563507 33.81459976 44.21595764 34.71904327 44.22659302 35.65089417 C44.22764103 41.61977642 44.17980309 47.41755813 40.16015625 52.1796875 C39.12181641 53.01886719 39.12181641 53.01886719 38.0625 53.875 C37.37285156 54.44992188 36.68320312 55.02484375 35.97265625 55.6171875 C31.75884053 58.5710306 27.25673369 58.25254567 22.3125 58.3125 C21.53455078 58.34150391 20.75660156 58.37050781 19.95507812 58.40039062 C14.15886023 58.46323536 9.83866183 57.24664108 5 54 C1.18776725 49.99226814 -0.1285257 46.91187939 -0.11352539 41.43676758 C-0.11344986 40.51603958 -0.11337433 39.59531158 -0.11329651 38.64668274 C-0.10813522 37.65597275 -0.10297394 36.66526276 -0.09765625 35.64453125 C-0.0962413 34.62775803 -0.09482635 33.6109848 -0.09336853 32.56340027 C-0.08776707 29.31307036 -0.07521432 26.06280912 -0.0625 22.8125 C-0.05748519 20.61002704 -0.05292225 18.40755299 -0.04882812 16.20507812 C-0.03779716 10.80335893 -0.02053154 5.40169111 0 0 Z " fill="#939393" transform="translate(448,33)"/>
<path d="M0 0 C31.23636364 0 31.23636364 0 37.15625 4.71875 C37.5996875 5.3065625 38.043125 5.894375 38.5 6.5 C38.9640625 7.0878125 39.428125 7.675625 39.90625 8.28125 C42.62620754 12.555469 42.44439455 17.12004475 42 22 C40.21056096 27.36831712 36.70021235 30.9699602 32 34 C27.11119361 36.10225729 22.8357379 36.24653011 17.625 36.125 C13.850625 36.063125 13.850625 36.063125 10 36 C10 43.26 10 50.52 10 58 C6.7 58 3.4 58 0 58 C0 38.86 0 19.72 0 0 Z M10 8 C10 14.6 10 21.2 10 28 C19.95408381 28.45961467 19.95408381 28.45961467 29 25 C31.47562852 21.28655722 31.53019233 18.30238038 31 14 C30.16666667 11.5 30.16666667 11.5 28 10 C21.59815038 7.75373698 17.11302062 8 10 8 Z " fill="#939393" transform="translate(340,33)"/>
<path d="M0 0 C3.3 0 6.6 0 10 0 C10 24.42 10 48.84 10 74 C6.7 74 3.4 74 0 74 C0 49.58 0 25.16 0 0 Z " fill="#939393" transform="translate(310,17)"/>
</svg>
